<svg xmlns="http://www.w3.org/2000/svg" xml:space="preserve" width="2000" height="204" data-id="lg_VJATUBxp8kF4mgPC4P" data-version="1" viewBox="0 0 2000 204"><g data-padding="20"><g transform="translate(10 3.192)scale(.9687)"><rect width="483.295" height="203.875" x="340.834" y="-399.517" fill="none" rx="0" ry="0" transform="translate(517.21 399.58)"/><path fill="#001f3f" d="M860.08 19.57v-2.13H895v2.13h-10.28V83.2h3.49q8.24 0 13.14-5.04t9.94-15.52h2.04l-1.84 22.7h-51.41V83.2h5.72V19.57Zm71 12.9q-5.14 0-7.32-2.62t-2.18-6.5 2.37-6.4q2.38-2.52 7.23-2.52t7.37 2.28 2.52 6.5-2.42 6.74q-2.43 2.52-7.57 2.52m-14.65 8.44v-1.74h23.77v44.42h5.43v1.75h-28.81v-1.75h5.34V40.91Zm66.56 18.33q0-9.99-.97-13.43t-3.79-3.44q-2.81 0-5.04 3.49t-2.23 9.6V73.5q0 4.17 1.7 7.08 1.69 2.91 4.85 2.91 3.15 0 4.31-4.26 1.17-4.27 1.17-14.94Zm-35.41-46.65h23.38v33.95q3.68-8.34 12.61-8.34 18.14 0 18.14 24.15 0 12.32-5 18.14-4.99 5.82-14.98 5.82-5.05 0-7.72-1.55-2.66-1.56-3.63-5.15l-.68 5.73h-22.12v-1.75h5.34V14.33h-5.34Zm89.44 29.29q-3.59 0-6.31 4.66-2.72 4.65-2.72 11.06v25.99h6.89v1.75h-30.26v-1.75h5.33V40.91h-5.33v-1.74h23.37v9.31q1.27-4.95 4.85-7.62 3.59-2.66 8.15-2.66t7.42 2.57 2.86 7.27q0 4.71-2.13 7.23t-6.55 2.52q-4.41 0-6.5-2.91-2.08-2.91-.53-8.05h3.49q2.43-4.95-2.03-4.95m38.88 20.66h2.82v-7.47q0-9.21-1.02-12.36-1.02-3.16-3.93-3.16-1.75 0-3.15.92-1.41.93-1.41 2.53t.58 3.25h2.43q.77 2.03.77 4.89 0 2.87-2.42 4.95-2.43 2.09-6.11 2.09-8.35 0-8.35-8.05 0-11.93 20.28-11.93 11.54 0 15.95 3.92 4.42 3.93 4.42 14.41v19.69q0 5.04 2.81 5.04 3.3 0 3.88-9.99l1.46.1q-.39 8.54-3.21 11.74-2.81 3.2-9.21 3.2-11.64 0-13.39-7.18-1.26 3.69-3.78 5.43-2.52 1.75-7.37 1.75-14.36 0-14.36-11.74 0-6.89 5.48-9.46t16.83-2.57m-3.88 11.93q0 5.05.54 6.5.53 1.46 2.03 1.46 1.51 0 2.82-2.48 1.31-2.47 1.31-6.83v-9.03h-.68q-6.02 0-6.02 8.83Zm66.26-32.59q-3.59 0-6.3 4.66-2.72 4.65-2.72 11.06v25.99h6.89v1.75h-30.26v-1.75h5.33V40.91h-5.33v-1.74h23.37v9.31q1.26-4.95 4.85-7.62 3.59-2.66 8.15-2.66t7.42 2.57 2.86 7.27q0 4.71-2.13 7.23-2.14 2.52-6.55 2.52t-6.5-2.91q-2.08-2.91-.53-8.05h3.49q2.43-4.95-2.04-4.95m19.1-.97h-3.97v-1.74h28.13v1.74h-5.24l10.57 32.21 11.25-32.21h-6.5v-1.74h13.68v1.74h-4.85l-18.14 52.28q-3.2 9.12-7.18 12.76-3.97 3.64-9.7 3.64-5.72 0-9.02-2.62t-3.3-6.69q0-4.08 2.14-6.21 2.13-2.14 5.62-2.14 8.06 0 8.06 6.7 0 1.45-.59 3.49h-3.39q-.78 2.23-.2 3.68.59 1.46 2.62 1.46 3.98 0 7.08-3.93 3.11-3.93 5.92-11.98l2.14-6.01h-8.54ZM899.56 161.66l11.64-49.96h25.9v1.84h-5.34v64.22h5.34v1.84h-29.59v-1.84h5.34v-60.63h-.39l-14.55 62.47h-12.13l-17.07-62.76h-.39v60.92h5.34v1.84h-13.19v-1.84h5.33v-64.22h-5.33v-1.84h26.19Zm64.22-4.85h2.81v-7.47q0-9.22-1.01-12.37-1.02-3.15-3.93-3.15-1.75 0-3.16.92-1.4.92-1.4 2.52t.58 3.25h2.42q.78 2.04.78 4.9t-2.42 4.95q-2.43 2.08-6.12 2.08-8.34 0-8.34-8.05 0-11.93 20.28-11.93 11.54 0 15.95 3.93 4.42 3.93 4.42 14.4v19.69q0 5.05 2.81 5.05 3.3 0 3.88-9.99l1.45.09q-.38 8.54-3.2 11.74-2.81 3.2-9.21 3.2-11.64 0-13.39-7.18-1.26 3.69-3.78 5.44-2.52 1.74-7.37 1.74-14.36 0-14.36-11.74 0-6.88 5.48-9.45t16.83-2.57m-3.88 11.93q0 5.04.53 6.5.54 1.45 2.04 1.45t2.81-2.47q1.31-2.48 1.31-6.84v-9.02h-.68q-6.01 0-6.01 8.83Zm34.04-33.56v-1.75h23.37v8.92q1.56-4.46 4.76-7.17 3.2-2.72 9.7-2.72 15.03 0 15.03 16.2v29.2h5.43v1.74h-27.45v-1.74h3.98v-31.53q0-5.82-.78-7.52-.77-1.69-2.81-1.69-3.1 0-5.48 4.07t-2.38 9.89v26.78h4.18v1.74h-27.55v-1.74h5.33v-42.68Zm82.85 21.63h2.81v-7.47q0-9.22-1.02-12.37t-3.93-3.15q-1.74 0-3.15.92t-1.41 2.52.58 3.25h2.43q.78 2.04.78 4.9t-2.43 4.95q-2.42 2.08-6.11 2.08-8.34 0-8.34-8.05 0-11.93 20.27-11.93 11.54 0 15.96 3.93 4.41 3.93 4.41 14.4v19.69q0 5.05 2.81 5.05 3.3 0 3.88-9.99l1.46.09q-.39 8.54-3.2 11.74-2.82 3.2-9.22 3.2-11.64 0-13.38-7.18-1.26 3.69-3.79 5.44-2.52 1.74-7.37 1.74-14.35 0-14.35-11.74 0-6.88 5.48-9.45t16.83-2.57m-3.88 11.93q0 5.04.53 6.5.53 1.45 2.04 1.45 1.5 0 2.81-2.47 1.31-2.48 1.31-6.84v-9.02h-.68q-6.01 0-6.01 8.83Zm72.74-40.35 2.71-1.65q.58-3.01-2.33-3.01-4.17 0-4.17 6.4 0 2.52.68 5.82 7.37 4.95 7.37 12.66t-5.33 11.98q-5.34 4.27-14.45 4.27-3.79 0-7.86-.78-4.27 2.72-4.27 4.08 0 1.35 6.21 1.35h9.89q22.02 0 22.02 15.81 0 8.54-6.64 13.54-6.65 4.99-20.71 4.99-23.96 0-23.96-10.38 0-5.62 7.47-7.76l5.82 2.62q-.78 2.81-.78 5.34 0 8.34 12.42 8.34 7.56 0 11.64-2.81 4.07-2.82 4.07-6.99t-2.47-5.58q-2.48-1.4-9.85-1.4h-9.41q-7.85 0-11.25-2.62-3.39-2.62-3.39-6.45t2.42-6.4q2.43-2.57 8.63-6.36-11.25-3.2-11.25-14.74 0-7.28 5.24-11.74t15.71-4.46q6.31 0 10.77 2.42-.58-2.61-.58-4.75 0-5.43 2.91-7.86 2.91-2.42 6.5-2.42t5.77 1.89 2.18 5.19-1.74 4.9q-1.75 1.6-4.22 1.6-2.48 0-4.08-1.31t-1.69-3.73m-20.57 18.13v5.24q0 6.5 1.12 8.83 1.11 2.33 3.39 2.33t3.3-2.28 1.02-9.36v-4.76q0-7.56-.97-9.94-.97-2.37-3.25-2.37t-3.44 2.47q-1.17 2.47-1.17 9.84m57.81 34.05q-12.51 0-18.77-6.45-6.25-6.45-6.25-17.94 0-11.5 7.03-17.61t17.9-6.11q22.02 0 21.14 22.12h-27.35v3.78q0 9.5 2.42 14.35 2.43 4.85 8.44 4.85 11.25 0 14.75-12.02l1.74.29q-1.84 6.98-6.64 10.86t-14.41 3.88m-6.2-32.69v4.76h9.99v-4.76q0-7.85-.92-10.72-.93-2.86-3.69-2.86-2.77 0-4.07 3.06-1.31 3.05-1.31 10.52m63.14-11.73q-3.59 0-6.3 4.65-2.72 4.66-2.72 11.06v26h6.89v1.74h-30.27v-1.74h5.34v-42.68h-5.34v-1.75h23.38v9.31q1.26-4.95 4.85-7.61 3.59-2.67 8.15-2.67t7.42 2.57 2.86 7.28q0 4.7-2.13 7.22-2.14 2.52-6.55 2.52t-6.5-2.91q-2.08-2.91-.53-8.05h3.49q2.42-4.94-2.04-4.94"/><path fill="#5ebc67" d="M796.836 45.625h-12.56v47.1a3.14 3.14 0 0 1-5.197 2.355l-10.503-9.153-10.488 9.184a3.156 3.156 0 0 1-5.212-2.386v-47.1h-49.863a14 14 0 0 0-.377 2.983v110.716c.017 10.04 8.156 18.172 18.196 18.18h73.052q1.492-.016 2.952-.376Z"/><path fill="#5ebc67" d="m770.648 79.38 7.348 6.437V45.625h-18.84v40.192l7.348-6.437a3.14 3.14 0 0 1 4.144 0"/><path fill="#5ebc67" d="M812.536 26.785h-87.527q-.942 0-1.712.502l-14.114 9.232a14.1 14.1 0 0 0-3.093 2.826h93.886a3.14 3.14 0 0 1 3.14 3.14v131.613q1.617-1.32 2.826-3.093l9.2-13.941q.518-.801.534-1.727V29.925a3.14 3.14 0 0 0-3.14-3.14"/></g><path fill="transparent" stroke="transparent" d="M680.5 0h639v204h-639z"/></g></svg>